<mxfile host="app.diagrams.net" agent="Mozilla/5.0 (Windows NT 10.0; Win64; x64) AppleWebKit/537.36 (KHTML, like Gecko) Chrome/125.0.0.0 Safari/537.36 Edg/125.0.0.0" version="26.0.16">
  <diagram name="第 1 页" id="OCGP7WfprYIRom_sYfIn">
    <mxGraphModel dx="815" dy="455" grid="0" gridSize="10" guides="1" tooltips="1" connect="1" arrows="1" fold="1" page="1" pageScale="1" pageWidth="827" pageHeight="1169" math="1" shadow="0">
      <root>
        <mxCell id="0" />
        <mxCell id="1" parent="0" />
        <mxCell id="8f648LGkRFMnPa2YWW44-22" value="" style="rounded=0;whiteSpace=wrap;html=1;fillColor=#f5f5f5;strokeColor=#666666;fontColor=#333333;" vertex="1" parent="1">
          <mxGeometry x="380" y="300" width="220" height="40" as="geometry" />
        </mxCell>
        <mxCell id="8f648LGkRFMnPa2YWW44-23" value="" style="rounded=0;whiteSpace=wrap;html=1;fillColor=#d5e8d4;strokeColor=#82b366;" vertex="1" parent="1">
          <mxGeometry x="320" y="300" width="71" height="40" as="geometry" />
        </mxCell>
        <mxCell id="8f648LGkRFMnPa2YWW44-24" value="" style="rounded=0;whiteSpace=wrap;html=1;fillColor=#f5f5f5;strokeColor=#666666;fontColor=#333333;" vertex="1" parent="1">
          <mxGeometry x="380" y="340" width="220" height="40" as="geometry" />
        </mxCell>
        <mxCell id="8f648LGkRFMnPa2YWW44-25" value="" style="rounded=0;whiteSpace=wrap;html=1;fillColor=#d5e8d4;strokeColor=#82b366;" vertex="1" parent="1">
          <mxGeometry x="320" y="340" width="71" height="40" as="geometry" />
        </mxCell>
        <mxCell id="8f648LGkRFMnPa2YWW44-26" value="" style="rounded=0;whiteSpace=wrap;html=1;fillColor=#f5f5f5;strokeColor=#666666;fontColor=#333333;" vertex="1" parent="1">
          <mxGeometry x="380" y="220" width="220" height="40" as="geometry" />
        </mxCell>
        <mxCell id="8f648LGkRFMnPa2YWW44-27" value="" style="rounded=0;whiteSpace=wrap;html=1;fillColor=#d5e8d4;strokeColor=#82b366;" vertex="1" parent="1">
          <mxGeometry x="320" y="220" width="71" height="40" as="geometry" />
        </mxCell>
        <mxCell id="8f648LGkRFMnPa2YWW44-28" value="&lt;font face=&quot;Times New Roman&quot;&gt;UE 1&lt;/font&gt;" style="text;strokeColor=none;align=center;fillColor=none;html=1;verticalAlign=middle;whiteSpace=wrap;rounded=0;" vertex="1" parent="1">
          <mxGeometry x="257" y="345" width="60" height="30" as="geometry" />
        </mxCell>
        <mxCell id="8f648LGkRFMnPa2YWW44-29" value="&lt;font face=&quot;Times New Roman&quot;&gt;UE 2&lt;/font&gt;" style="text;strokeColor=none;align=center;fillColor=none;html=1;verticalAlign=middle;whiteSpace=wrap;rounded=0;" vertex="1" parent="1">
          <mxGeometry x="257" y="305" width="60" height="30" as="geometry" />
        </mxCell>
        <mxCell id="8f648LGkRFMnPa2YWW44-30" value="&lt;font face=&quot;Times New Roman&quot;&gt;UE K&lt;/font&gt;" style="text;strokeColor=none;align=center;fillColor=none;html=1;verticalAlign=middle;whiteSpace=wrap;rounded=0;" vertex="1" parent="1">
          <mxGeometry x="257" y="225" width="60" height="30" as="geometry" />
        </mxCell>
        <mxCell id="8f648LGkRFMnPa2YWW44-31" value="&lt;div style=&quot;line-height: 10%;&quot;&gt;&lt;div&gt;&lt;font face=&quot;Times New Roman&quot; style=&quot;font-size: 26px; line-height: 10%; color: rgb(102, 102, 102);&quot;&gt;.&lt;/font&gt;&lt;/div&gt;&lt;div&gt;&lt;font face=&quot;Times New Roman&quot; style=&quot;font-size: 26px; line-height: 10%; color: rgb(102, 102, 102);&quot;&gt;.&lt;/font&gt;&lt;/div&gt;&lt;div&gt;&lt;font face=&quot;Times New Roman&quot; style=&quot;font-size: 26px; line-height: 10%; color: rgb(102, 102, 102);&quot;&gt;.&lt;/font&gt;&lt;/div&gt;&lt;/div&gt;" style="text;strokeColor=none;align=center;fillColor=none;html=1;verticalAlign=middle;whiteSpace=wrap;rounded=0;" vertex="1" parent="1">
          <mxGeometry x="418" y="242" width="126" height="66" as="geometry" />
        </mxCell>
        <mxCell id="8f648LGkRFMnPa2YWW44-32" value="&lt;div style=&quot;line-height: 10%;&quot;&gt;&lt;div&gt;&lt;font face=&quot;Times New Roman&quot; style=&quot;font-size: 26px; line-height: 10%; color: rgb(130, 179, 102);&quot;&gt;.&lt;/font&gt;&lt;/div&gt;&lt;div&gt;&lt;font face=&quot;Times New Roman&quot; style=&quot;font-size: 26px; line-height: 10%; color: rgb(130, 179, 102);&quot;&gt;.&lt;/font&gt;&lt;/div&gt;&lt;div&gt;&lt;font face=&quot;Times New Roman&quot; style=&quot;font-size: 26px; line-height: 10%; color: rgb(130, 179, 102);&quot;&gt;.&lt;/font&gt;&lt;/div&gt;&lt;/div&gt;" style="text;strokeColor=none;align=center;fillColor=none;html=1;verticalAlign=middle;whiteSpace=wrap;rounded=0;" vertex="1" parent="1">
          <mxGeometry x="285" y="242" width="126" height="66" as="geometry" />
        </mxCell>
        <mxCell id="8f648LGkRFMnPa2YWW44-33" value="" style="endArrow=classic;startArrow=classicThin;html=1;rounded=0;startFill=1;strokeColor=#d79b00;fillColor=#ffe6cc;" edge="1" parent="1">
          <mxGeometry width="50" height="50" relative="1" as="geometry">
            <mxPoint x="318" y="396" as="sourcePoint" />
            <mxPoint x="599" y="396" as="targetPoint" />
          </mxGeometry>
        </mxCell>
        <mxCell id="8f648LGkRFMnPa2YWW44-38" value="" style="endArrow=none;dashed=1;html=1;strokeWidth=1;rounded=0;jumpSize=5;startSize=4;fillColor=#d5e8d4;strokeColor=#82b366;curved=0;" edge="1" parent="1">
          <mxGeometry width="50" height="50" relative="1" as="geometry">
            <mxPoint x="320" y="408" as="sourcePoint" />
            <mxPoint x="320" y="381" as="targetPoint" />
          </mxGeometry>
        </mxCell>
        <mxCell id="8f648LGkRFMnPa2YWW44-39" value="" style="endArrow=none;dashed=1;html=1;strokeWidth=1;rounded=0;jumpSize=5;startSize=4;fillColor=#d5e8d4;strokeColor=#666666;curved=0;" edge="1" parent="1">
          <mxGeometry width="50" height="50" relative="1" as="geometry">
            <mxPoint x="600" y="407" as="sourcePoint" />
            <mxPoint x="600" y="380" as="targetPoint" />
          </mxGeometry>
        </mxCell>
        <mxCell id="8f648LGkRFMnPa2YWW44-45" value="导频长度\( \tau_{p} ^{\mathrm {cf}} \) " style="text;whiteSpace=wrap;fontFamily=宋体;" vertex="1" parent="1">
          <mxGeometry x="323.00428571428563" y="345.0028571428571" width="238" height="36" as="geometry" />
        </mxCell>
        <mxCell id="8f648LGkRFMnPa2YWW44-50" value="上行数据传输序列长度\( \tau_{u} ^{\mathrm {cf}} \) " style="text;whiteSpace=wrap;fontFamily=宋体;" vertex="1" parent="1">
          <mxGeometry x="431.00428571428563" y="345.0028571428571" width="238" height="36" as="geometry" />
        </mxCell>
        <mxCell id="8f648LGkRFMnPa2YWW44-51" value="有限块长度\( \tau ^{\mathrm {c}} \) " style="text;whiteSpace=wrap;fontFamily=宋体;" vertex="1" parent="1">
          <mxGeometry x="418.00428571428563" y="399.0028571428571" width="238" height="36" as="geometry" />
        </mxCell>
      </root>
    </mxGraphModel>
  </diagram>
</mxfile>
